<svg xmlns="http://www.w3.org/2000/svg" version="1.1" xmlns:xlink="http://www.w3.org/1999/xlink" xmlns:svgjs="http://svgjs.dev/svgjs" width="2000" height="2250" viewBox="0 0 2000 2250"><g transform="matrix(1,0,0,1,3.410605131648481e-13,0)"><svg viewBox="0 0 320 360" data-background-color="#fdf8f1" preserveAspectRatio="xMidYMid meet" height="2250" width="2000" xmlns="http://www.w3.org/2000/svg" xmlns:xlink="http://www.w3.org/1999/xlink"><g id="tight-bounds" transform="matrix(1,0,0,1,0,0)"><svg viewBox="0 0 320 360" height="360" width="320"><g><svg></svg></g><g><svg viewBox="0 0 320 360" height="360" width="320"><g><path d="M20.961 227.22l3.726 4.658-1.863-6.056c-0.466-2.795-3.726 0.466-1.863 1.398M25.153 224.425c1.397 2.329 2.795 4.658 2.795 6.987 0 3.261 2.795 4.658 5.123 5.589-3.261-3.726-5.124-13.974-7.918-12.576M204.017 26.929c7.918 0 15.371-0.932 23.756 0.931 20.495 5.124 37.729 15.371 49.374 29.811l32.606 52.169c1.397 13.042 4.192 27.482 3.726 43.319 3.261 0 2.795-4.658 6.521-5.59-3.726 9.316-5.59 20.961-6.521 34.469-2.329-7.453 0-18.632 0.466-24.687-3.261 5.124-5.124 1.397-5.124-0.932 0.466-3.726-1.397-3.261-2.795-4.658-5.124-4.658-8.384-9.782-12.11-17.7 2.329-6.055 2.795-14.905-4.658-19.563-2.329-1.397-5.124-3.726-6.521-7.453-1.863-5.124-5.124-11.179-4.193-19.097 0.466-2.329-6.987 5.124-11.179 1.863-18.166-12.576-36.332-27.016-58.224-39.127-11.645 0-20.029-4.192-24.221-9.316-3.726-4.658-0.932-10.713 4.658-11.179 3.261 0 6.987-0.932 9.782 0.932 0.466-1.863 2.329-4.192 4.657-4.192M157.904 16.215l0.932 0.466c4.658 0.932 6.987 7.453 12.11 5.124 0 3.261 0.466 6.521-0.466 8.85-1.397 3.726-5.59 3.726-8.85 3.726-31.208-1.863-49.374 11.179-68.471 22.358-5.124 3.261-10.713 5.59-14.906 9.782-20.029 18.632-41.921 35.866-47.045 70.335l-4.192 38.195c-0.466 4.192-5.124 8.384-4.192 13.508l3.26 22.824c-3.261-3.261-5.124 0.932-4.192 2.795 0.466 1.397 2.329 6.055 5.124 1.863 3.726 6.987 7.453 20.495 12.576 26.55 15.837 18.632 36.332 35.4 53.101 52.169 4.192-0.932 7.453-0.932 8.384-3.727 1.397 2.795-1.397 5.59-3.726 6.056 7.453 4.658 15.837 8.85 27.016 9.781 14.44 0.932 27.948 3.261 40.524 6.522 6.521-1.863 13.042-2.795 20.029-3.261 2.329 0 3.726-3.726 6.521-4.658l0.466-4.658c2.795 4.192 2.329-1.397 0.466-4.192 3.261 2.795 4.192 5.124 5.589 6.987 0-1.397 3.726-6.521 3.727-0.466l0.931-6.055c1.397-0.932 1.863 5.124 3.261 0.931 1.397-4.192 4.192-0.932 6.987-2.329-0.932 1.863-0.466 5.59 2.794 3.261l3.727-3.261c2.329 5.59 6.055 3.261 7.918 2.329 20.495-13.042 40.99-28.413 60.553-43.784l-0.466 6.055 2.329-7.453c2.329 2.329 4.192 0.466 5.124-0.931 2.795-4.658 6.521-9.316 12.577-13.508-7.453 20.029-16.303 35.866-27.482 48.908l-4.658 5.59c0 3.261-0.932 7.453-4.658 7.918-1.863 0.466-5.59-0.932-8.384 1.863-1.397 1.863 3.261 5.59-0.466 2.795-3.261-2.329-6.521 0-10.248 0.932-2.795 0.932 1.863 3.726 2.795 5.589 0.932 1.863 1.863 3.726 1.398 6.056l-5.124-5.59c-6.055 3.261-9.782 9.316-14.906 13.974-2.329 1.863-1.397 5.124-1.397 7.918-3.261 0-6.987-0.932-8.85 0.932-1.397 1.863-0.932 4.658-0.932 7.453-4.658-0.466-5.124-7.453-9.315-6.056-4.192 0.932-8.85 1.397-12.577 3.727 2.795 5.59-4.658 2.329-3.726 3.26-6.987-4.192-13.042-7.453-20.495-4.658-15.837-5.124-35.4-2.795-49.84-0.931 0-2.329 0.466-4.658-0.466-5.124-0.932 2.329-3.726 1.397-3.26 1.397-8.85-6.055-17.7-9.782-27.016-14.905-8.384 0.932-16.303-3.261-18.632-5.59-6.521-6.055-13.974-2.795-20.029-4.192-13.042-3.261-17.7-16.769-19.098-26.084-0.932-4.658-4.658-6.521-6.055-6.056-6.055-19.563-15.371-37.263-22.824-55.429-1.863-4.658-1.397-9.316-1.397-14.44 2.329 0.932 4.658 0.466 4.192-2.794-2.329-15.371-7.918-27.016-13.974-38.195 3.261-15.837 3.726-34.469 11.179-48.443 6.521-12.576 18.632-19.098 27.016-29.811 2.795-3.726 2.795-8.85 5.59-12.11 9.316-9.316 18.632-19.098 28.879-27.482 4.658-3.726 10.247 0 17.234-1.397 2.329-8.384 11.645-15.837 20.495-13.508 3.726 0.932 11.179-8.85 13.508-9.782 3.726-1.397 1.863 3.726 1.863 6.987 8.85-6.987 20.961-10.713 32.14-14.906" fill="#fa4238" fill-rule="nonzero" stroke="none" stroke-width="1" stroke-linecap="butt" stroke-linejoin="miter" stroke-miterlimit="10" stroke-dasharray="" stroke-dashoffset="0" font-family="none" font-weight="none" font-size="none" text-anchor="none" style="mix-blend-mode: normal" data-fill-palette-color="tertiary"></path></g><g transform="matrix(1,0,0,1,64,130.67625899280574)"><svg viewBox="0 0 192 98.64748201438849" height="98.64748201438849" width="192"><g><svg viewBox="0 0 192 98.64748201438849" height="98.64748201438849" width="192"><g><svg viewBox="0 0 192 98.64748201438849" height="98.64748201438849" width="192"><g><svg viewBox="0 0 192 98.64748201438849" height="98.64748201438849" width="192"><g id="textblocktransform"><svg viewBox="0 0 192 98.64748201438849" height="98.64748201438849" width="192" id="textblock"><g><svg viewBox="0 0 192 98.64748201438849" height="98.64748201438849" width="192"><g transform="matrix(1,0,0,1,0,0)"><svg width="192" viewBox="1.7 -42.45 83.39999999999999 42.85" height="98.64748201438849" data-palette-color="#fa4238"><path d="M16.35 0.4Q9.7 0.4 5.7-2.13 1.7-4.65 1.7-9.85L1.7-9.85Q1.7-12.6 2.65-14.05 3.6-15.5 5.45-15.5L5.45-15.5Q6.8-15.5 7.65-14.8 8.5-14.1 8.5-13L8.5-13Q8.5-12 8.35-11.25L8.35-11.25Q8.35-11.05 8.28-10.55 8.2-10.05 8.2-9.5L8.2-9.5Q8.2-7.25 10.48-6.15 12.75-5.05 16.85-5.05L16.85-5.05Q21.1-5.05 23.5-6.58 25.9-8.1 25.9-10.85L25.9-10.85Q25.9-12.55 24.8-13.78 23.7-15 22.05-15.83 20.4-16.65 17.4-17.85L17.4-17.85Q13.55-19.35 11.13-20.7 8.7-22.05 6.98-24.38 5.25-26.7 5.25-30.15L5.25-30.15Q5.25-33.75 7.18-36.55 9.1-39.35 12.73-40.9 16.35-42.45 21.25-42.45L21.25-42.45Q24.9-42.45 27.95-41.38 31-40.3 32.83-38.1 34.65-35.9 34.65-32.7L34.65-32.7Q34.65-29.55 33.7-27.95 32.75-26.35 30.9-26.35L30.9-26.35Q29.6-26.35 28.73-27.15 27.85-27.95 27.85-29.05L27.85-29.05Q27.85-30 28-30.8L28-30.8Q28.15-32.3 28.15-32.7L28.15-32.7Q28.15-34.8 26.1-35.9 24.05-37 21-37L21-37Q16.7-37 14.43-35.43 12.15-33.85 12.15-31L12.15-31Q12.15-29.1 13.33-27.75 14.5-26.4 16.25-25.5 18-24.6 21.15-23.35L21.15-23.35Q24.95-21.8 27.25-20.55 29.55-19.3 31.18-17.15 32.8-15 32.8-11.85L32.8-11.85Q32.8-5.95 28.33-2.78 23.85 0.4 16.35 0.4L16.35 0.4ZM83.7-11.15Q84.35-11.15 84.72-10.55 85.1-9.95 85.1-8.9L85.1-8.9Q85.1-6.95 84.15-5.8L84.15-5.8Q81.75-2.9 79.3-1.33 76.85 0.25 73.5 0.25L73.5 0.25Q70.25 0.25 67.97-1.5 65.7-3.25 63.65-7.5L63.65-7.5Q62-10.9 61.05-12.53 60.1-14.15 59.17-14.85 58.25-15.55 56.9-15.7L56.9-15.7Q56.7-14.65 55.75-9.1L55.75-9.1Q55.35-6.6 55.25-6.05L55.25-6.05Q54.75-3 53.25-1.38 51.75 0.25 48.7 0.25L48.7 0.25Q45.35 0.25 42.77-1.73 40.2-3.7 38.8-7.23 37.4-10.75 37.4-15.25L37.4-15.25Q37.4-23.65 40.32-29.75 43.25-35.85 48.52-39.08 53.8-42.3 60.7-42.3L60.7-42.3Q65.5-42.3 68.75-40.85 72-39.4 73.57-36.85 75.15-34.3 75.15-31.1L75.15-31.1Q75.15-28.3 73.82-25.63 72.5-22.95 69.85-20.9 67.2-18.85 63.4-17.85L63.4-17.85Q65.8-17.2 67.1-15.75 68.4-14.3 69.7-11.5L69.7-11.5Q71.1-8.5 72.47-7.1 73.85-5.7 75.65-5.7L75.65-5.7Q77.25-5.7 78.7-6.78 80.15-7.85 82.35-10.45L82.35-10.45Q82.95-11.15 83.7-11.15L83.7-11.15ZM48.65-8.25L50-15.75Q48.3-15.75 47.67-16.55 47.05-17.35 47.05-18.35L47.05-18.35Q47.05-19.55 47.82-20.25 48.6-20.95 49.6-20.95L49.6-20.95 50.85-20.95Q51.65-25.85 52.35-29.4L52.35-29.4Q53-32.65 56.55-32.65L56.55-32.65Q59.4-32.65 59.4-30.1L59.4-30.1Q59.4-29.55 59.35-29.25L59.35-29.25 57.85-20.95Q60.55-21.1 62.77-22.25 65-23.4 66.32-25.45 67.65-27.5 67.65-30.1L67.65-30.1Q67.65-33.25 65.5-35.05 63.35-36.85 59.2-36.85L59.2-36.85Q54.3-36.85 50.62-34.43 46.95-32 44.9-27.23 42.85-22.45 42.85-15.6L42.85-15.6Q42.85-12.4 43.5-10.1 44.15-7.8 45.1-6.65 46.05-5.5 46.9-5.5L46.9-5.5Q47.55-5.5 47.97-6.15 48.4-6.8 48.65-8.25L48.65-8.25Z" opacity="1" transform="matrix(1,0,0,1,0,0)" fill="#fa4238" class="wordmark-text-0" data-fill-palette-color="primary" id="text-0"></path></svg></g></svg></g></svg></g></svg></g><g></g></svg></g></svg></g></svg></g></svg></g><defs></defs></svg><rect width="320" height="360" fill="none" stroke="none" visibility="hidden"></rect></g></svg></g></svg>